{
  "accessors": [
    {
      "bufferView": 1,
      "componentType": 5126,
      "count": 8142,
      "max": [
        3.446730852127075,
        3.3602006435394287,
        3.581916093826294
      ],
      "min": [
        -3.6546316146850586,
        -3.462770462036133,
        -3.496152639389038
      ],
      "type": "VEC3"
    },
    {
      "bufferView": 1,
      "byteOffset": 97704,
      "componentType": 5126,
      "count": 8142,
      "max": [
        0.9999091625213623,
        0.9990714192390442,
        0.9980198740959167
      ],
      "min": [
        -0.9999141693115234,
        -0.9961666464805603,
        -0.9993953704833984
      ],
      "type": "VEC3"
    },
    {
      "bufferView": 0,
      "componentType": 5125,
      "count": 8142,
      "type": "SCALAR"
    }
  ],
  "asset": {
    "extras": {
      "author": "biggreenorange (https://sketchfab.com/biggreenorange)",
      "license": "CC-BY-4.0 (http://creativecommons.org/licenses/by/4.0/)",
      "source": "https://sketchfab.com/3d-models/tumbleweed-e9fa341c64fe4626b5d5b0052b0c0b64",
      "title": "Tumbleweed"
    },
    "generator": "Sketchfab-12.68.0",
    "version": "2.0"
  },
  "bufferViews": [
    {
      "buffer": 0,
      "byteLength": 32568,
      "name": "floatBufferViews",
      "target": 34963
    },
    {
      "buffer": 0,
      "byteLength": 195408,
      "byteOffset": 32568,
      "byteStride": 12,
      "name": "floatBufferViews",
      "target": 34962
    }
  ],
  "buffers": [
    {
      "byteLength": 227976,
      "uri": "scene.bin"
    }
  ],
  "materials": [
    {
      "doubleSided": true,
      "name": "Material.001",
      "pbrMetallicRoughness": {
        "baseColorFactor": [
          0.8,
          0.416495,
          0.101338,
          1.0
        ],
        "metallicFactor": 0.0,
        "roughnessFactor": 0.8239417257
      }
    }
  ],
  "meshes": [
    {
      "name": "Plane.007_Material.001_0",
      "primitives": [
        {
          "attributes": {
            "NORMAL": 1,
            "POSITION": 0
          },
          "indices": 2,
          "material": 0,
          "mode": 4
        }
      ]
    }
  ],
  "nodes": [
    {
      "children": [
        1
      ],
      "matrix": [
        1.0,
        0.0,
        0.0,
        0.0,
        0.0,
        2.220446049250313e-16,
        -1.0,
        0.0,
        0.0,
        1.0,
        2.220446049250313e-16,
        0.0,
        0.0,
        0.0,
        0.0,
        1.0
      ],
      "name": "Sketchfab_model"
    },
    {
      "children": [
        2
      ],
      "matrix": [
        1.0,
        0.0,
        0.0,
        0.0,
        0.0,
        0.0,
        1.0,
        0.0,
        0.0,
        -1.0,
        0.0,
        0.0,
        0.0,
        0.0,
        0.0,
        1.0
      ],
      "name": "87ed60d64fd345c8898a11c9de0b8f99.fbx"
    },
    {
      "children": [
        3,
        6,
        8
      ],
      "name": "RootNode"
    },
    {
      "children": [
        4
      ],
      "matrix": [
        -29.08647719990347,
        -5.518906457566863,
        -95.51711910171437,
        0.0,
        56.63930913109449,
        79.46723428563203,
        -21.83912397841966,
        0.0,
        77.11008775993375,
        -60.45246356562044,
        -19.98834696773717,
        0.0,
        407.6245422363281,
        590.38623046875,
        -100.54539489746094,
        1.0
      ],
      "name": "Lamp"
    },
    {
      "children": [
        5
      ],
      "matrix": [
        1.0,
        0.0,
        0.0,
        0.0,
        0.0,
        2.220446049250313e-16,
        1.0,
        0.0,
        0.0,
        -1.0,
        2.220446049250313e-16,
        0.0,
        0.0,
        0.0,
        0.0,
        1.0
      ],
      "name": "Object_4"
    },
    {
      "name": "Object_5"
    },
    {
      "children": [
        7
      ],
      "matrix": [
        -65.15583280329096,
        -44.52713576570858,
        -61.41703047373549,
        0.0,
        -32.40134137821245,
        89.53957451233616,
        -30.542088974418615,
        0.0,
        68.59205472129975,
        -1.0718647115348782e-05,
        -72.7676336239627,
        0.0,
        748.1131591796875,
        534.3665161132813,
        650.7639770507813,
        1.0
      ],
      "name": "Camera"
    },
    {
      "name": "Object_7"
    },
    {
      "children": [
        9
      ],
      "matrix": [
        67.52043204783774,
        -33.03329136910371,
        27.382346820483153,
        0.0,
        -41.08693121908445,
        -64.48942142396291,
        23.51549717528297,
        0.0,
        12.363467922534884,
        -33.910414119064015,
        -71.39487709354249,
        0.0,
        0.0,
        0.0,
        0.0,
        1.0
      ],
      "name": "Plane.007"
    },
    {
      "mesh": 0,
      "name": "Plane.007_Material.001_0"
    }
  ],
  "scene": 0,
  "scenes": [
    {
      "name": "Sketchfab_Scene",
      "nodes": [
        0
      ]
    }
  ]
}
