{
  "accessors": [
    {
      "bufferView": 2,
      "componentType": 5126,
      "count": 1281,
      "max": [
        -0.11265400052070618,
        0.19496199488639832,
        7.333982944488525
      ],
      "min": [
        -3.888223886489868,
        -0.19496400654315948,
        5.529265880584717
      ],
      "type": "VEC3"
    },
    {
      "bufferView": 2,
      "byteOffset": 15372,
      "componentType": 5126,
      "count": 1281,
      "max": [
        0.9997888207435608,
        0.9999865293502808,
        0.9999823570251465
      ],
      "min": [
        -0.9991718530654907,
        -0.9999855756759644,
        -0.9998241066932678
      ],
      "type": "VEC3"
    },
    {
      "bufferView": 1,
      "componentType": 5126,
      "count": 1281,
      "max": [
        0.7877169847488403,
        0.9762369990348816
      ],
      "min": [
        0.0033939999993890524,
        0.43184199929237366
      ],
      "type": "VEC2"
    },
    {
      "bufferView": 0,
      "componentType": 5125,
      "count": 5952,
      "type": "SCALAR"
    },
    {
      "bufferView": 2,
      "byteOffset": 30744,
      "componentType": 5126,
      "count": 1281,
      "max": [
        0.5674830079078674,
        0.064301997423172,
        8.828434944152832
      ],
      "min": [
        -0.45246198773384094,
        -0.06430500000715256,
        7.909234046936035
      ],
      "type": "VEC3"
    },
    {
      "bufferView": 2,
      "byteOffset": 46116,
      "componentType": 5126,
      "count": 1281,
      "max": [
        0.9993703365325928,
        0.9992466568946838,
        0.9990869164466858
      ],
      "min": [
        -0.9988893866539001,
        -0.998971164226532,
        -0.9963678121566772
      ],
      "type": "VEC3"
    },
    {
      "bufferView": 1,
      "byteOffset": 10248,
      "componentType": 5126,
      "count": 1281,
      "max": [
        0.8132179975509644,
        0.9762369990348816
      ],
      "min": [
        0.10843300074338913,
        0.44283899664878845
      ],
      "type": "VEC2"
    },
    {
      "bufferView": 0,
      "byteOffset": 23808,
      "componentType": 5125,
      "count": 5952,
      "type": "SCALAR"
    },
    {
      "bufferView": 2,
      "byteOffset": 61488,
      "componentType": 5126,
      "count": 1281,
      "max": [
        0.5056020021438599,
        -0.043407998979091644,
        6.995988845825195
      ],
      "min": [
        -0.028821000829339027,
        -2.420067071914673,
        4.9304518699646
      ],
      "type": "VEC3"
    },
    {
      "bufferView": 2,
      "byteOffset": 76860,
      "componentType": 5126,
      "count": 1281,
      "max": [
        0.9999737739562988,
        0.9993760585784912,
        0.9964971542358398
      ],
      "min": [
        -0.9999080896377563,
        -0.999154806137085,
        -0.9995555281639099
      ],
      "type": "VEC3"
    },
    {
      "bufferView": 1,
      "byteOffset": 20496,
      "componentType": 5126,
      "count": 1281,
      "max": [
        0.9475299715995789,
        0.9762369990348816
      ],
      "min": [
        0.012234999798238277,
        0.04594400152564049
      ],
      "type": "VEC2"
    },
    {
      "bufferView": 0,
      "byteOffset": 47616,
      "componentType": 5125,
      "count": 5952,
      "type": "SCALAR"
    },
    {
      "bufferView": 2,
      "byteOffset": 92232,
      "componentType": 5126,
      "count": 658,
      "max": [
        1.541612982749939,
        0.08616500347852707,
        8.094181060791016
      ],
      "min": [
        0.2358669936656952,
        -0.11705199629068375,
        6.426815032958984
      ],
      "type": "VEC3"
    },
    {
      "bufferView": 2,
      "byteOffset": 100128,
      "componentType": 5126,
      "count": 658,
      "max": [
        0.9990964531898499,
        1.0,
        0.8731838464736938
      ],
      "min": [
        -0.9999920129776001,
        -1.0,
        -0.7900893092155457
      ],
      "type": "VEC3"
    },
    {
      "bufferView": 1,
      "byteOffset": 30744,
      "componentType": 5126,
      "count": 658,
      "max": [
        0.37983301281929016,
        0.7222049832344055
      ],
      "min": [
        0.2631340026855469,
        0.466605007648468
      ],
      "type": "VEC2"
    },
    {
      "bufferView": 0,
      "byteOffset": 71424,
      "componentType": 5125,
      "count": 3264,
      "type": "SCALAR"
    },
    {
      "bufferView": 2,
      "byteOffset": 108024,
      "componentType": 5126,
      "count": 1281,
      "max": [
        0.0003809999907389283,
        -0.042702000588178635,
        5.607666015625
      ],
      "min": [
        -0.4329659938812256,
        -1.2737109661102295,
        5.200096130371094
      ],
      "type": "VEC3"
    },
    {
      "bufferView": 2,
      "byteOffset": 123396,
      "componentType": 5126,
      "count": 1281,
      "max": [
        0.9998385310173035,
        0.9922676682472229,
        0.9967078566551208
      ],
      "min": [
        -0.999853789806366,
        -0.9904730916023254,
        -0.9955312609672546
      ],
      "type": "VEC3"
    },
    {
      "bufferView": 1,
      "byteOffset": 36008,
      "componentType": 5126,
      "count": 1281,
      "max": [
        0.9729840159416199,
        0.9762369990348816
      ],
      "min": [
        0.08301900327205658,
        0.0458110012114048
      ],
      "type": "VEC2"
    },
    {
      "bufferView": 0,
      "byteOffset": 84480,
      "componentType": 5125,
      "count": 5952,
      "type": "SCALAR"
    },
    {
      "bufferView": 2,
      "byteOffset": 138768,
      "componentType": 5126,
      "count": 658,
      "max": [
        1.4481379985809326,
        0.07345899939537048,
        9.662035942077637
      ],
      "min": [
        1.0261880159378052,
        -0.05010300129652023,
        8.444717407226563
      ],
      "type": "VEC3"
    },
    {
      "bufferView": 2,
      "byteOffset": 146664,
      "componentType": 5126,
      "count": 658,
      "max": [
        0.9999755620956421,
        1.0,
        0.5591000914573669
      ],
      "min": [
        -0.9981558918952942,
        -1.0,
        -0.4868057370185852
      ],
      "type": "VEC3"
    },
    {
      "bufferView": 1,
      "byteOffset": 46256,
      "componentType": 5126,
      "count": 658,
      "max": [
        0.3723529875278473,
        0.7260919809341431
      ],
      "min": [
        0.13292300701141357,
        0.4876120090484619
      ],
      "type": "VEC2"
    },
    {
      "bufferView": 0,
      "byteOffset": 108288,
      "componentType": 5125,
      "count": 3264,
      "type": "SCALAR"
    },
    {
      "bufferView": 2,
      "byteOffset": 154560,
      "componentType": 5126,
      "count": 1281,
      "max": [
        -0.020367000252008438,
        2.3695590496063232,
        7.623227119445801
      ],
      "min": [
        -0.513247013092041,
        -0.027643999084830284,
        5.5837721824646
      ],
      "type": "VEC3"
    },
    {
      "bufferView": 2,
      "byteOffset": 169932,
      "componentType": 5126,
      "count": 1281,
      "max": [
        0.999104917049408,
        0.9997145533561707,
        0.9949964284896851
      ],
      "min": [
        -0.9999339580535889,
        -0.9961630702018738,
        -0.9996586441993713
      ],
      "type": "VEC3"
    },
    {
      "bufferView": 1,
      "byteOffset": 51520,
      "componentType": 5126,
      "count": 1281,
      "max": [
        0.9220629930496216,
        0.9762369990348816
      ],
      "min": [
        0.12754599750041962,
        0.04594400152564049
      ],
      "type": "VEC2"
    },
    {
      "bufferView": 0,
      "byteOffset": 121344,
      "componentType": 5125,
      "count": 5952,
      "type": "SCALAR"
    },
    {
      "bufferView": 2,
      "byteOffset": 185304,
      "componentType": 5126,
      "count": 1281,
      "max": [
        -1.2184200286865234,
        0.06056800112128258,
        6.2125959396362305
      ],
      "min": [
        -2.061389923095703,
        -0.7678560018539429,
        5.409055233001709
      ],
      "type": "VEC3"
    },
    {
      "bufferView": 2,
      "byteOffset": 200676,
      "componentType": 5126,
      "count": 1281,
      "max": [
        0.9989354610443115,
        0.9973487854003906,
        0.9995579123497009
      ],
      "min": [
        -0.9992396235466003,
        -0.9982274770736694,
        -0.9987381100654602
      ],
      "type": "VEC3"
    },
    {
      "bufferView": 1,
      "byteOffset": 61768,
      "componentType": 5126,
      "count": 1281,
      "max": [
        0.9884210228919983,
        0.9762369990348816
      ],
      "min": [
        0.03234099969267845,
        0.0458110012114048
      ],
      "type": "VEC2"
    },
    {
      "bufferView": 0,
      "byteOffset": 145152,
      "componentType": 5125,
      "count": 5952,
      "type": "SCALAR"
    },
    {
      "bufferView": 2,
      "byteOffset": 216048,
      "componentType": 5126,
      "count": 3915,
      "max": [
        3.090749979019165,
        2.2441248893737793,
        8.913553237915039
      ],
      "min": [
        -0.9542589783668518,
        -2.0989809036254883,
        0.7713059782981873
      ],
      "type": "VEC3"
    },
    {
      "bufferView": 2,
      "byteOffset": 263028,
      "componentType": 5126,
      "count": 3915,
      "max": [
        0.9999969005584717,
        1.0,
        0.9999076128005981
      ],
      "min": [
        -0.9995937943458557,
        -1.0,
        -0.9995676279067993
      ],
      "type": "VEC3"
    },
    {
      "bufferView": 1,
      "byteOffset": 72016,
      "componentType": 5126,
      "count": 3915,
      "max": [
        0.9963080286979675,
        0.9733480215072632
      ],
      "min": [
        0.016357000917196274,
        0.0458110012114048
      ],
      "type": "VEC2"
    },
    {
      "bufferView": 0,
      "byteOffset": 168960,
      "componentType": 5125,
      "count": 17628,
      "type": "SCALAR"
    }
  ],
  "asset": {
    "extras": {
      "author": "Marissa Menlove (https://sketchfab.com/rissymenlove)",
      "license": "CC-BY-4.0 (http://creativecommons.org/licenses/by/4.0/)",
      "source": "https://sketchfab.com/3d-models/spooky-tree-3f050640e5d245ccb458aa5184f241e7",
      "title": "Spooky Tree"
    },
    "generator": "Sketchfab-12.66.0",
    "version": "2.0"
  },
  "bufferViews": [
    {
      "buffer": 0,
      "byteLength": 239472,
      "name": "floatBufferViews",
      "target": 34963
    },
    {
      "buffer": 0,
      "byteLength": 103336,
      "byteOffset": 239472,
      "byteStride": 8,
      "name": "floatBufferViews",
      "target": 34962
    },
    {
      "buffer": 0,
      "byteLength": 310008,
      "byteOffset": 342808,
      "byteStride": 12,
      "name": "floatBufferViews",
      "target": 34962
    }
  ],
  "buffers": [
    {
      "byteLength": 652816,
      "uri": "scene.bin"
    }
  ],
  "images": [
    {
      "uri": "textures/Material.001_baseColor.png"
    },
    {
      "uri": "textures/Material.002_baseColor.png"
    }
  ],
  "materials": [
    {
      "doubleSided": true,
      "name": "Material.001",
      "pbrMetallicRoughness": {
        "baseColorTexture": {
          "index": 0
        },
        "metallicFactor": 0.0,
        "roughnessFactor": 0.6
      }
    },
    {
      "doubleSided": true,
      "name": "Material.002",
      "pbrMetallicRoughness": {
        "baseColorTexture": {
          "index": 1
        },
        "metallicFactor": 0.0,
        "roughnessFactor": 0.6
      }
    },
    {
      "doubleSided": true,
      "name": "Material.003",
      "pbrMetallicRoughness": {
        "baseColorTexture": {
          "index": 1
        },
        "metallicFactor": 0.0,
        "roughnessFactor": 0.6
      }
    },
    {
      "doubleSided": true,
      "name": "Material.004",
      "pbrMetallicRoughness": {
        "baseColorTexture": {
          "index": 1
        },
        "metallicFactor": 0.0,
        "roughnessFactor": 0.6
      }
    },
    {
      "doubleSided": true,
      "name": "Material.005",
      "pbrMetallicRoughness": {
        "baseColorTexture": {
          "index": 1
        },
        "metallicFactor": 0.0,
        "roughnessFactor": 0.6
      }
    },
    {
      "doubleSided": true,
      "name": "Material.006",
      "pbrMetallicRoughness": {
        "baseColorTexture": {
          "index": 1
        },
        "metallicFactor": 0.0,
        "roughnessFactor": 0.6
      }
    },
    {
      "doubleSided": true,
      "name": "Material.007",
      "pbrMetallicRoughness": {
        "baseColorTexture": {
          "index": 1
        },
        "metallicFactor": 0.0,
        "roughnessFactor": 0.6
      }
    },
    {
      "doubleSided": true,
      "name": "Material.008",
      "pbrMetallicRoughness": {
        "baseColorTexture": {
          "index": 1
        },
        "metallicFactor": 0.0,
        "roughnessFactor": 0.6
      }
    },
    {
      "doubleSided": true,
      "name": "Material.009",
      "pbrMetallicRoughness": {
        "baseColorTexture": {
          "index": 1
        },
        "metallicFactor": 0.0,
        "roughnessFactor": 0.5078125
      }
    }
  ],
  "meshes": [
    {
      "name": "Object_0",
      "primitives": [
        {
          "attributes": {
            "NORMAL": 1,
            "POSITION": 0,
            "TEXCOORD_0": 2
          },
          "indices": 3,
          "material": 2,
          "mode": 4
        }
      ]
    },
    {
      "name": "Object_1",
      "primitives": [
        {
          "attributes": {
            "NORMAL": 5,
            "POSITION": 4,
            "TEXCOORD_0": 6
          },
          "indices": 7,
          "material": 6,
          "mode": 4
        }
      ]
    },
    {
      "name": "Object_2",
      "primitives": [
        {
          "attributes": {
            "NORMAL": 9,
            "POSITION": 8,
            "TEXCOORD_0": 10
          },
          "indices": 11,
          "material": 1,
          "mode": 4
        }
      ]
    },
    {
      "name": "Object_3",
      "primitives": [
        {
          "attributes": {
            "NORMAL": 13,
            "POSITION": 12,
            "TEXCOORD_0": 14
          },
          "indices": 15,
          "material": 3,
          "mode": 4
        }
      ]
    },
    {
      "name": "Object_4",
      "primitives": [
        {
          "attributes": {
            "NORMAL": 17,
            "POSITION": 16,
            "TEXCOORD_0": 18
          },
          "indices": 19,
          "material": 8,
          "mode": 4
        }
      ]
    },
    {
      "name": "Object_5",
      "primitives": [
        {
          "attributes": {
            "NORMAL": 21,
            "POSITION": 20,
            "TEXCOORD_0": 22
          },
          "indices": 23,
          "material": 7,
          "mode": 4
        }
      ]
    },
    {
      "name": "Object_6",
      "primitives": [
        {
          "attributes": {
            "NORMAL": 25,
            "POSITION": 24,
            "TEXCOORD_0": 26
          },
          "indices": 27,
          "material": 5,
          "mode": 4
        }
      ]
    },
    {
      "name": "Object_7",
      "primitives": [
        {
          "attributes": {
            "NORMAL": 29,
            "POSITION": 28,
            "TEXCOORD_0": 30
          },
          "indices": 31,
          "material": 4,
          "mode": 4
        }
      ]
    },
    {
      "name": "Object_8",
      "primitives": [
        {
          "attributes": {
            "NORMAL": 33,
            "POSITION": 32,
            "TEXCOORD_0": 34
          },
          "indices": 35,
          "material": 0,
          "mode": 4
        }
      ]
    }
  ],
  "nodes": [
    {
      "children": [
        1
      ],
      "matrix": [
        1.0,
        0.0,
        0.0,
        0.0,
        0.0,
        2.220446049250313e-16,
        -1.0,
        0.0,
        0.0,
        1.0,
        2.220446049250313e-16,
        0.0,
        0.0,
        0.0,
        0.0,
        1.0
      ],
      "name": "Sketchfab_model"
    },
    {
      "children": [
        2,
        3,
        4,
        5,
        6,
        7,
        8,
        9,
        10
      ],
      "name": "spookytree02.obj.cleaner.materialmerger.gles"
    },
    {
      "mesh": 0,
      "name": "Object_2"
    },
    {
      "mesh": 1,
      "name": "Object_3"
    },
    {
      "mesh": 2,
      "name": "Object_4"
    },
    {
      "mesh": 3,
      "name": "Object_5"
    },
    {
      "mesh": 4,
      "name": "Object_6"
    },
    {
      "mesh": 5,
      "name": "Object_7"
    },
    {
      "mesh": 6,
      "name": "Object_8"
    },
    {
      "mesh": 7,
      "name": "Object_9"
    },
    {
      "mesh": 8,
      "name": "Object_10"
    }
  ],
  "samplers": [
    {
      "magFilter": 9729,
      "minFilter": 9987,
      "wrapS": 10497,
      "wrapT": 10497
    }
  ],
  "scene": 0,
  "scenes": [
    {
      "name": "Sketchfab_Scene",
      "nodes": [
        0
      ]
    }
  ],
  "textures": [
    {
      "sampler": 0,
      "source": 0
    },
    {
      "sampler": 0,
      "source": 1
    }
  ]
}
